<svg preserveAspectRatio="none" overflow="visible" style="display: block;" width="48" height="48" viewBox="0 0 48 48" fill="none" xmlns="http://www.w3.org/2000/svg">
<g id="SVG">
<path id="Vector" d="M13.1323 41.3333C12.46 41.3333 11.881 41.0905 11.3953 40.6048C10.9096 40.1191 10.6667 39.5401 10.6667 38.8678V21.7672C10.6667 21.0865 10.9096 20.5054 11.3953 20.024C11.881 19.5425 12.46 19.3018 13.1323 19.3018H16.1073V15.38C16.1073 13.3318 16.8258 11.5898 18.2628 10.1539C19.6998 8.71797 21.4432 8 23.4929 8C25.5426 8 27.2841 8.71797 28.7174 10.1539C30.1506 11.5898 30.8673 13.3318 30.8673 15.38V19.3018H33.8423C34.5145 19.3018 35.0935 19.5425 35.5793 20.024C36.065 20.5054 36.3078 21.0865 36.3078 21.7672V38.8678C36.3078 39.5401 36.065 40.1191 35.5793 40.6048C35.0935 41.0905 34.5145 41.3333 33.8423 41.3333H13.1323ZM13.1323 39.3938H33.8423C33.9957 39.3938 34.1217 39.3445 34.2204 39.2459C34.319 39.1473 34.3683 39.0212 34.3683 38.8678V21.7672C34.3683 21.6138 34.319 21.4878 34.2204 21.3892C34.1217 21.2905 33.9957 21.2412 33.8423 21.2412H13.1323C12.9789 21.2412 12.8528 21.2905 12.7542 21.3892C12.6556 21.4878 12.6062 21.6138 12.6062 21.7672V38.8678C12.6062 39.0212 12.6556 39.1473 12.7542 39.2459C12.8528 39.3445 12.9789 39.3938 13.1323 39.3938ZM23.4945 33.2136C24.2918 33.2136 24.9726 32.9354 25.5369 32.379C26.1012 31.8225 26.3834 31.1529 26.3834 30.3701C26.3834 29.614 26.0988 28.9336 25.5297 28.3287C24.9606 27.7239 24.2774 27.4214 23.4801 27.4214C22.6828 27.4214 22.002 27.7239 21.4377 28.3287C20.8733 28.9336 20.5912 29.6212 20.5912 30.3915C20.5912 31.1618 20.8757 31.8248 21.4448 32.3803C22.014 32.9359 22.6972 33.2136 23.4945 33.2136ZM18.0468 19.3018H28.9278V15.38C28.9278 13.8687 28.3994 12.5842 27.3427 11.5263C26.286 10.4684 25.0029 9.93945 23.4933 9.93945C21.9837 9.93945 20.6985 10.4684 19.6378 11.5263C18.5771 12.5842 18.0468 13.8687 18.0468 15.38V19.3018Z" fill="#701926"/>
</g>
</svg>
